<?xml version="1.0" standalone="no"?>
<!DOCTYPE svg PUBLIC "-//W3C//DTD SVG 20010904//EN"
 "http://www.w3.org/TR/2001/REC-SVG-20010904/DTD/svg10.dtd">
<svg version="1.0" xmlns="http://www.w3.org/2000/svg"
 width="700.000000pt" height="700.000000pt" viewBox="0 0 700.000000 700.000000"
 preserveAspectRatio="xMidYMid meet">
<metadata>
Created by potrace 1.14, written by Peter Selinger 2001-2017
</metadata>
<g transform="translate(0.000000,700.000000) scale(0.100000,-0.100000)"
fill="#000000" stroke="none">
<path d="M3180 6549 c-440 -46 -825 -199 -1069 -427 l-72 -67 -665 -2150
c-365 -1182 -700 -2265 -743 -2405 -43 -140 -77 -259 -74 -263 5 -8 506 -9
557 0 l31 5 355 1149 354 1149 1633 0 1632 0 21 -71 c12 -39 20 -73 18 -74 -2
-2 -213 -90 -468 -195 -256 -106 -467 -194 -469 -196 -7 -6 189 -476 223 -533
64 -109 197 -203 324 -230 29 -6 91 -11 137 -11 100 0 114 -17 38 -45 -27 -10
-53 -22 -60 -27 -19 -15 -26 -128 -13 -214 47 -313 240 -604 471 -714 105 -49
147 -38 256 71 73 73 112 145 122 221 l6 53 51 -164 c47 -155 52 -165 78 -172
42 -12 566 -11 566 0 0 10 -20 74 -415 1356 -141 457 -261 857 -266 890 -5 33
-21 83 -34 110 -13 28 -191 592 -395 1255 l-371 1205 -57 53 c-322 298 -822
455 -1437 451 -99 -1 -218 -6 -265 -10z m2485 -3104 c11 -86 2 -164 -27 -228
-28 -60 -106 -150 -155 -179 l-28 -16 -68 162 c-37 89 -67 166 -67 171 0 9
301 142 327 144 7 1 14 -21 18 -54z m-234 -917 c17 -57 32 -109 33 -116 1 -13
-403 -186 -413 -177 -6 7 -3 9 65 43 130 66 226 173 262 294 9 32 18 58 19 58
1 0 16 -46 34 -102z m169 -550 c45 -146 70 -225 78 -248 3 -8 -14 4 -38 28
-24 23 -58 47 -75 53 -28 10 -33 18 -43 68 -7 31 -22 88 -35 126 l-24 70 36
17 c20 9 41 17 48 17 7 1 29 -55 53 -131z"/>
<path d="M4010 3035 c-25 -8 -97 -40 -160 -72 -118 -60 -160 -98 -160 -148 0
-41 53 -127 124 -199 105 -108 214 -156 355 -156 70 0 186 20 216 38 10 5 -12
68 -90 255 -57 137 -113 260 -126 273 -26 28 -85 31 -159 9z m203 -310 c37
-90 67 -169 67 -173 0 -12 -60 -22 -130 -22 -68 0 -180 39 -229 78 -41 33
-112 123 -108 136 2 6 304 141 327 145 3 0 35 -73 73 -164z"/>
</g>
</svg>
