<?xml version="1.0" encoding="utf-8"?>
<!-- Generator: Adobe Illustrator 28.2.0, SVG Export Plug-In . SVG Version: 6.00 Build 0)  -->
<svg version="1.1" id="Layer_1" xmlns="http://www.w3.org/2000/svg" xmlns:xlink="http://www.w3.org/1999/xlink" x="0px" y="0px"
	 viewBox="0 0 752 752" style="enable-background:new 0 0 752 752;" xml:space="preserve">
<style type="text/css">
	.st0{fill:#FFFF00;}
	.st1{fill:#FF0000;}
	.st2{fill:#C6C6C6;}
	.st3{fill:#FDE7FF;}
	.st4{fill:#FFFFFF;}
	.st5{fill:#00784A;}
	.st6{fill:none;stroke:#333333;stroke-width:0.4224;stroke-miterlimit:10;}
	.st7{fill:#333333;}
</style>
<circle class="st0" cx="376" cy="376" r="376"/>
<path d="M539.2,88.3c-0.2-0.7-0.8-1.1-1.4-1.2l0.3-0.1C502,49.5,443.6,31.1,375.4,30.5C308.7,30,249.8,48.6,212.9,86.7l0.1,0.2
	c-0.5,0.1-0.9,0.4-1.1,1L43.6,631.7c-0.3,0.9,0.4,1.8,1.4,1.8l63.5-0.7c0.6,0,1.1-0.4,1.3-1l80.4-260.3h370.5l80.7,261.3l66.5,0.7
	L539.2,88.3z"/>
<g>
	<path class="st1" d="M205.2,213.1c0.1,0,0.2,0.1,0.3,0.1C205.5,213.2,205.4,213.1,205.2,213.1L205.2,213.1z"/>
	<path class="st1" d="M285.2,129.7c0.3,0.5,0.6,0.9,0.9,1.4c0.1-0.1,0.2-0.1,0.3-0.2C285.9,130.5,285.5,130.1,285.2,129.7z"/>
	<path class="st1" d="M550.7,234.2c-1.1-3.3-2.4-6.5-3.5-9.7c-0.4-1.2-0.8-2.6-0.8-3.9c-0.2-3.2,0-6.5-0.4-9.7
		c-0.2-1.6-1.4-3.2-2.2-4.7c-0.6-0.9-1.6-1.7-2.3-2.6c-2.3-2.7-4.4-5.5-6.6-8.2c-0.3-0.3-0.9-0.3-1.3-0.5c-3.6-1.2-7.8-4.5-7.4-9
		c0.1-1.5-0.3-3.1-0.5-4.7c-0.3,0.3-0.6,0.6-1,0.8c-1.6-0.9-3.2-1.8-4.9-2.7c-0.1,0.5-0.3,1.2-0.5,1.9c-3.1,0.3-3.7-2-4.1-4
		c-0.9-4-2-7.9-5.6-10.5c-0.5-0.4-1-1.7-0.8-1.9c1.8-2-0.3-2.7-1.2-3.2c-2.1-1-4.4-1.6-6.5-2.5c-0.9-0.4-2-1.1-2.3-1.9
		c-0.7-2-2-2.1-3.7-2.5c-3.4-0.9-7.4-1.3-7.5-6.3c0-0.4-0.9-0.8-1-1.3c-0.5-1.3-1.2-2.8-1.2-4.1c0.2-4.3,0.1-8.4-3.7-11.5
		c-0.9-0.7-1.3-2.3-1.6-3.5c-0.7-3.7-0.6-7.7-3.2-10.9c-1.8-2.1-3.2-4.6-4.8-7c-1.1,0.6-2,1.2-3.1,1.7c-1.5,0.6-3.1,0.6-3.6-1.2
		c-0.6-2.2-0.8-4.5-1.4-6.6c-0.8-2.9-1.6-5.9-2.7-8.7c-0.9-2.3-2.3-4.5-3.4-6.7c-0.1-0.2-0.1-0.6-0.1-0.9c0.3-3-1.2-5.3-3.2-7.8
		c-1,1.2-2.3,2-2.7,3.2c-0.7,2.3-0.9,4.7-1.4,7.1c-0.1,0.5-0.4,1-0.7,1.4c-0.9,1.1-1.9,2.2-2.9,3.4c1.4,1.2,2.3,1.9,3,2.4
		c-1,0.7-2.4,1.2-2.6,1.9c-0.6,2.5-1.4,5.1-1.2,7.6c0.7,5.8,0.8,11.3-0.7,17.1c-1.2,4.9-3.6,9.1-5.3,13.8c-0.2,0.5-0.7,1-1.2,1.2
		c-2.2,1-4.5,1.8-6.1,2.5c-1.5-1.1-2.5-1.9-3.6-2.7c-1.3-1.1-2.6-2.2-3.9-3.2c-1.3-1-2.7-1.9-4.1-2.7c-1.8-0.9-3.7-1.5-5.4-2.4
		c-1.8-1-3.4-2.5-5.3-3.4c-4.2-2.1-9-3.2-12-7.3c-0.5-0.7-1.4-1-2.1-1.5c-3.9-2.3-3.9-2.3-1.5-6.1c0.4-0.6,1-1.2,1.5-1.8
		c1.1-1.5,2-3,0.9-5c-0.4-0.6-0.2-2.2,0.3-2.5c1.4-1.1,3-1.8,4.3-2.5c1.3-2.1,2.7-4.2,4.1-6.5c-0.8-0.5-1.8-1-2.8-1.6
		c-0.5-0.3-1.1-0.4-1.6-0.6c-0.1,0.5-0.2,1.1-0.4,1.6c-0.3,0.7-0.8,1.4-1.2,2.1c-0.6-0.4-1.3-0.8-1.9-1.2c-0.7-0.5-1.5-0.9-2.3-1.4
		c0.2-0.6,0.4-1.2,0.9-2.5c-2.3,2.9-5.5,3.3-8.3,1.8c-0.6-0.3-1.4-0.7-1.9-0.6c-2.5,0.8-4.5-0.5-6.4-1.6c-0.3-0.2-0.7-0.4-1-0.5
		c-3.4-1.1-7.4-1.3-10.1-3.4c-2.2-1.7-4.2-0.8-6.2-1.1c1.2,0.9,2.6,1.5,4,1.6c2.2,0.2,4.5,4.2,3.3,6.3c-0.6-0.1-1.2-0.3-1.9-0.4
		c-0.1,0.6-0.2,1.3-0.2,1.6c-1.5-0.1-2.7-0.1-3.9-0.2c-1.8-0.1-3.6,0.3-5.2-0.2c-2.7-0.9-3.9,0.3-4.7,2.6c-0.7-0.4-1.3-0.7-1.9-1
		c0.1,0.8,0.2,1.3,0.3,1.9c-2.4-0.1-4.6,2.3-4.5,4.7c0,0.7-0.2,1.8-0.6,2c-3.7,1.5-3,6.2-7,8.2c2,0.6,2.9,0.9,3.9,1.2
		c0.2,0.9,0.3,1.7,0.5,2.7c-0.7,0-1.4,0.1-1.9,0.1c0.3,0.7,0.5,1.3,1,2.7c-1.6-1-2.5-1.6-3.5-2.2c-0.2,0.5-0.4,0.9-0.5,1.4
		c-3.2-3.2-6.7-3.2-8.5-0.1c0.1,0.7,0.3,1.4,0.5,2.3c-0.9,0.2-1.7,0.3-2.9,0.5c0.5-1.6,0.9-2.9,1.1-4.2c0.1-0.7,0.3-1.8-0.1-2.1
		c-3.3-2.8-5.6-7.1-10.2-7.4c-1.1,1.1-2.8,2.9-3,2.7c-2.4-1.6-3.6,0.9-3.9,1.7c-0.8,2-2.3,2.1-3.8,2.3c-6,0.4-7.2,2-5.4,6.5
		c-2,0.9-3.9,1.8-5.8,2.7c0.8,0.7,1.5,1.4,2.5,2.4c-0.5,0.7-1.3,1.6-2,2.5c0.5,0.4,1,0.7,1.4,1.1c-1.4,0.4-2.6,0-3.8,0
		c-1.3,0-2.9,0.1-3.8,0.8c-1.2,1-0.7,2.4,0.5,3.5c0.5,0.5,0.7,1.4,0.9,2.1c0.1,0.2-0.1,0.5-0.2,0.9c-0.7-0.4-1.3-0.7-2.1-1.1
		c-0.3,1.2-0.6,2.1-1,3.6c-1.6-2.6-3-4.9-4.4-7.2c-1.4,0.8-2.9,1.5-4.3,2.5c-3.3,2.3-4,4.4-2.2,7.9c1.1,2.1,0.4,3.2-1.2,4
		c-2.3,1.1-3.5,2.9-4.5,5.1c-1.9,4.3-5.3,7-9.8,8c-3.4,0.7-6.9,0.9-10.3,1.5c-1,0.2-1.9,0.6-2.9,1c-4.4,1.7-8.7,3.5-13.1,5.2
		c-0.2,0.1-0.6,0-0.9-0.1c-5.2-1.5-9.2,0.9-13,4.1c-1.4,1.2-2.8,2.6-4.5,3.2c-3.6,1.3-6.8,2.8-7.8,7c-0.1,0.5-1.3,1.1-1.8,1
		c-0.4-0.1-1-1.1-1.1-1.7c-0.1-1.2,0.2-2.4,0.3-3.7c-1.5,2.3-4.1,4.4-3,7.5c1,3,0.6,5.3-1.1,7.9c-1.8,2.6-2.5,5.5-0.6,8.5
		c1.8,2.9,3.5,6,5.2,9c1.3,2.3,1.1,4.3-0.2,5.8c-1.5-0.7-2.6-1.2-3.7-1.6c0.2,0.2,0.5,0.4,0.5,0.6c0.1,0.9,0.1,1.8,0.1,2.8
		c-0.7-0.5-1.6-0.9-2.2-1.5c-0.6-0.6-1-1.4-1.5-2.1c-0.3,0.2-0.6,0.4-0.9,0.6c0.7,1,1.4,2.1,2.2,3c2.6,3.1,5.2,6.2,5.7,10.6
		c0.2,1.6,1.2,3.1,1.9,4.7c1.6,3.4,4.7,6.7,4.8,10c0.2,6.5,2.4,11.9,5.7,17.1c1.8,2.8,2.1,6,1,9.3c-0.3,0.8-0.5,1.7-0.4,2.5
		c0.7,5-0.8,6.8-5.6,7c-0.8,4.1-0.5,4.5,3.1,5.7c1.3,0.4,2.5,1.5,3.7,2.3c1.1,0.7,2.2,1.8,3.4,2.1c3.1,0.7,6.3,0.6,9.4,1.4
		c3.9,1,7.1-0.4,10-2.4c3.7-2.5,8.7-2.5,11.7-6.4c0.4-0.5,1.4-0.6,2.2-0.7c3.5-0.3,6.9-0.8,10.4-0.9c5.2,0,10.3,0.9,15.6,0.9
		c3.6,0,6.6-1.4,8.3-4.7c0.8-1.6,2.6-2.9,4.2-3.9c1.4-0.9,3.2-1.3,4.8-1.9c4.5-1.9,8.7-3.9,14-3.8c5.1,0.1,10.2-1.9,15.3-3.1
		c3.6-0.8,7.1-2,10.7-2.5c3.2-0.5,6.7,0.4,9.8-0.5c3.6-1,6.4-0.2,9,1.7c2.1,1.5,3.9,2.7,6.6,1.7c0.8-0.3,2,0.5,3,0.8
		c1,0.3,2.1,1.1,3,0.9c3.7-1.1,5.2,2.6,8,3.5c0.2,0.1,0.4,1.2,0.2,1.5c-1.6,2.3-0.2,3.6,1.7,3.7c2.3,0.1,3,1.3,3.5,3.1
		c0.2,0.8,0.9,1.4,1.4,2.2c1.3,2.2,2.7,4.4,4.3,7.1c-1.6-0.2-2.1-0.2-2.6-0.3c-0.1,0.2-0.1,0.4-0.2,0.6c2,1,4.1,2.1,5.8,2.9
		c0.1-1.5-0.1-2.7,0.4-3.2c2.1-2.2,4.2-4.3,6.5-6.1c1.5-1.2,3.8-1.6,5-3c1.9-2.3,3.3-5.1,5-8c0.2,2,3.3,3.2,0.6,5.8
		c-0.8,0.8-0.1,2.9-0.9,3.8c-1.8,2-2.9,4-2.3,6.8c0.4,2.1-0.2,3.8-3,4c-0.8,0.1-1.6,1-2.4,1.6c0.1,0.2,0.3,0.4,0.4,0.7
		c1.3-0.3,2.6-1,3.9-0.9c2.8,0.3,3.5-1.3,3.9-3.5c0.4-1.7,1-3.3,1.5-5c0.3,0,0.7,0,1-0.1c1.1,2.1,2.8,4.2,3,6.4c0.2,2.1-1.2,4.4-2,7
		c2-0.7,4.4-1.2,6.5-2.3c1.9-1,2.8-0.8,3.3,1.4c0.2,1,0.9,1.9,1.4,2.7c1.6,2.7,3,5.5,2.3,8.7c-0.5,2.4,0,3.9,2,5.2
		c0.9,0.6,1.6,1.7,2.4,2.5c0.8,0.8,1.8,2,2.7,2c4-0.1,6.8,3.1,11.1,2.8c3.7-0.2,7.5,2,11.2,3.3c2,0.7,3.7,0.8,5.4-0.6
		c1.8-1.4,3.9-2.6,5.6-3.6c-0.1-0.3-0.3-0.8-0.5-1.2c1.7-0.4,3.4-0.8,5-1.3c-0.3,1.4-0.5,2.8-0.8,4.2c1.3-0.5,2.9-1.2,4.7-2
		c0.2,5.9,6.3,4.2,7.8,8.4c0.6-1.3,0.8-1.9,1.1-2.4c-0.9-0.2-1.7-0.3-2.5-0.4c0-0.3,0-0.5,0-0.8c1-0.2,2-0.4,3-0.7
		c1.9-0.7,4.1-1,5.5-2.3c4.6-4.3,10.1-5.5,16.1-5.5c2.1,0,4.3-1,6.4-1.7c0.6-0.2,1.5-1.2,1.3-1.6c-1-3.3,0.3-6.3,1.4-9.3
		c1-3,2.2-5.9,3.5-8.7c2-4.2,4.3-8.2,6.3-12.4c1.7-3.7,3-7.5,7-9.6c1.6-0.9,3-2.4,4-4c1-1.5,1-3.5,1.9-5c1.7-2.9,2.8-5.7,2.4-9.1
		c-0.1-0.8,0.2-1.7,0.5-2.6c1.5-4.4,3-8.7,4.4-13.1C550.7,235.6,550.9,234.8,550.7,234.2z"/>
	<path class="st1" d="M501,340.1c-2.3,0.7-4.7,0.9-6.9,1.8c-3.9,1.6-7.6,1.1-11.3-0.2c-2-0.7-4.1-1.2-6.2-1.7c-3-0.7-4.1,0.4-2.7,3
		c1.6,3.2,4,5.9,6,8.9c0.5,0.7,0.8,1.4,1.2,2.1c-0.2,0.1-0.4,0.3-0.6,0.4c-0.6-0.5-1.3-1-2.1-1.7c0.6,5.1,8.7,11.2,13.2,10.8
		c0.8-0.1,1.5-1.5,2.3-2.3c0.3-0.3,0.3-0.9,0.6-1.1c2.7-1.5,5.5-3,8.3-4.5c-1-1.3-0.6-3.1,1.4-5.5c0.2,0.7,0.4,1.2,0.6,1.7
		c0.2-3,0.3-5.8,0.4-8.7C505.2,340.5,503.6,339.4,501,340.1z"/>
	<path class="st1" d="M355.1,89.6c2.3-0.3,3.8-3,3.5-4.6c-2.8,0-5.5,0-8.2,0C351.4,86.8,351.7,90,355.1,89.6z"/>
	<path class="st1" d="M403.7,296.7c0.1,0.3,0.1,0.6,0.2,0.9c3.9,1.4,7.8,0.4,12.3-0.9c-2.6-0.6-4.6-1.4-6.5-1.4
		C407.6,295.3,405.6,296.2,403.7,296.7z"/>
	<path class="st1" d="M405.2,110.4c-0.1-1.3-0.3-2.3-0.5-4.4c-1.2,1.2-2.1,2-3.4,3.3C403.2,109.9,404.3,110.2,405.2,110.4z"/>
	<path class="st1" d="M505,333.6c-1.1-1-2.2-2-3.3-3c-0.3,0.3-0.6,0.7-0.9,1c1.1,1,2.2,2,3.2,3.1C504.3,334.3,504.6,333.9,505,333.6
		z"/>
	<path class="st1" d="M547.5,201.7c-0.6,2-1.3,4.2-2,6.3C548.3,203.1,548.3,203.1,547.5,201.7z"/>
	<path class="st1" d="M205.2,213.1C205.2,213.1,205.3,213,205.2,213.1c0-0.1,0-0.2,0-0.2C205.2,212.9,205.2,213,205.2,213.1z"/>
	<path class="st1" d="M202.6,208.4c1.1,1.8,1.8,3.1,2.6,4.4C205.1,211.3,206.5,209.1,202.6,208.4z"/>
	<path class="st1" d="M466.7,333c0.5,0,1,0.1,1.4,0.1c0.1-1,0.2-2.1,0.3-3.1c-0.5-0.1-1-0.1-1.5-0.2
		C466.9,330.8,466.8,331.9,466.7,333z"/>
</g>
<g>
	<g>
		<g>
			<path class="st2" d="M458.2,433.1l108.9-44.9l23.7,57c0,0,6.5,24-5.5,46.1c-12,22.1-35.7,27.7-35.7,27.7s-23.1,5.2-42.5-4.6
				c-19.3-9.8-26.2-26.6-26.2-26.6L458.2,433.1z"/>
			<circle cx="498.3" cy="454.5" r="6.1"/>
			<circle cx="553.9" cy="431.7" r="6.1"/>
			<path d="M555.4,488.8L555.4,488.8c-0.1-7.9-3.6-17-9.2-22.4c-0.5-0.5-1.1-1-1.7-1.5c0.1,0,0.1-0.1,0.1-0.1s-3.1-3.2-12.3-7
				c0,0-3.2,10.9-3.1,12.3c0,0,0,0,0,0c-1.3,6.3,1.1,14.1,3.9,19.1c2.3,4.2,5.7,8.2,10,10.3c2.2,1.1,5.5,2.2,7.8,0.9
				C554,498.8,555.2,492.2,555.4,488.8z"/>
		</g>
		<g>
			<path class="st2" d="M630.5,395.5c0,0,0.6-10-0.6-18.6c-1-7.3-3.2-11.3-3.9-12.4c-5.1-9.5-17.4-5.1-32.1,0.5
				c-15.3,5.8-27.4,11.5-23.9,22.3l0,0l23.2,56.1c0,0,17.3-7.2,27.2-21.2S630.5,395.5,630.5,395.5z"/>
			<path class="st3" d="M581.9,392.3l39-16.2c0,0,4.4,13.2,1.6,24.2c-2.8,10.9-8.4,17.7-8.4,17.7s-7.8,9.6-16,13.4L581.9,392.3z"/>
		</g>
		<g>
			<path class="st2" d="M418.1,482.2c0,0-7.5-6.6-12.7-13.5c-4.4-5.9-5.7-10.3-6-11.5c-3.1-10.4,8.7-15.9,23.1-22.4
				c14.9-6.7,27.5-11.3,32.6-1.2l0,0l23.3,56.1c0,0-17.4,7.2-34.2,4.3C427.2,491.1,418.1,482.2,418.1,482.2z"/>
			<path class="st3" d="M450.1,445.5l-39,16.2c0,0,6.3,12.4,16,18.2c9.7,5.7,18.5,6.6,18.5,6.6s12.3,1.3,20.8-1.9L450.1,445.5z"/>
		</g>
	</g>
</g>
<g>
	<path class="st4" d="M547.1,516.4c0.1-1-0.7-2.8-0.3-6.2c0.5-3.4,0.8-4.1,0.8-4.1l1.4-3.9l1.3-0.2c0,0-1.7,3.6-2.1,6.8
		c-0.4,3.2-0.5,4.7-0.5,4.7s-0.2,4,0.8,7.6"/>
	<path class="st5" d="M550.7,501.9l4.4-1.1c0,0-2.2,16.8-3.6,20s-1.7,3.4-1.7,3.4s-1.1,1.4-2.8-0.9c-1.6-2.3-2.5-5.2-2.5-5.2
		s-1.6-6.2-0.9-10.1c0.6-3.9,1.5-5.8,1.5-5.8l4.3-0.2l-1.7,4.7c0,0-1.1,4.6-0.4,8.2c0,0,0.2,3,1.4,6.3l0.3-0.2c0,0-1.1-4.9-0.8-6.7
		c0,0,0-5.9,1.4-9.9C550.1,502.7,550.7,501.9,550.7,501.9z"/>
</g>
<path class="st6" d="M592.3,648.4"/>
<g>
	<path class="st2" d="M606.3,564.3c-1.6-9.2-4.1-17.5-7-24.1c-0.4-1.5-0.4-2.4-0.4-2.4l29.6-12.1l-12.6-30.7l-82.4,33.8l0.1,0.2
		l-0.5,0.2c-3.9,11.4-1.6,31.5,7,52.4c8.6,20.9,21.1,36.9,31.9,42.3c0,0,9.5-4.3,19.1-9.6c0,0,4.8-2,10.6-6.1
		c0.2-0.1,0.4-0.3,0.6-0.4c1.4-1.1,2.9-2.2,4.4-3.6c2.4-2.1,2.5-9.5,1.5-18.5C608.3,579.2,607.7,571.9,606.3,564.3z"/>
	<path class="st7" d="M625.8,492.9c-1.4,0.4-2.5,1.1-3.6,1.7l-3.3,1.3l0.3,0.7l1.2,3l0.3,0.7l3.3-1.3c1.2-0.3,2.5-0.7,3.8-1.2
		c4.6-1.8,8.5-5.4,8-5.9C635.1,491.1,630.7,491.3,625.8,492.9z"/>
	<path class="st7" d="M629,499.9c-1.4,0.4-2.5,1.1-3.6,1.7l-3.3,1.3l0.3,0.7l1.2,3l0.3,0.7l3.3-1.3c1.2-0.3,2.5-0.7,3.8-1.2
		c4.6-1.8,8.5-5.4,8-5.9C638.3,498.1,633.9,498.3,629,499.9z"/>
	<path class="st7" d="M631.6,506.8c-1.4,0.4-2.5,1.1-3.6,1.7l-3.3,1.3l0.3,0.7l1.2,3l0.3,0.7l3.3-1.3c1.2-0.3,2.5-0.7,3.8-1.2
		c4.6-1.8,8.5-5.4,8-5.9C640.9,505.1,636.5,505.3,631.6,506.8z"/>
	<path class="st7" d="M634.6,513.9c-1.4,0.4-2.5,1.1-3.6,1.7l-3.3,1.3l0.3,0.7l1.2,3l0.3,0.7l3.3-1.3c1.2-0.3,2.5-0.7,3.8-1.2
		c4.6-1.8,8.5-5.4,8-5.9C643.9,512.2,639.5,512.3,634.6,513.9z"/>
</g>
<path class="st2" d="M596.4,637.1c1,0,2.1-0.1,3.3-0.5c0.6-0.1,1.2-0.3,1.7-0.6c3.9-1.6,8.5-5.1,12.7-9.8c0.5-0.5,1.1-1.1,1.6-1.6
	c5.5-5.8,9.3-11.9,10.7-16.6c1.1-2.7,1.9-5.6,2.2-8.7c1.7-17-10.7-32.2-27.7-33.9s-42.7,29.7-44.5,32c-4,5.1,3.1,17.5,16,27.8
	c7.4,5.9,15,9.8,20.9,11.1C594,636.9,595.1,637.2,596.4,637.1z"/>
</svg>
