<?xml version="1.0" encoding="utf-8"?>
<!-- Generator: Adobe Illustrator 28.1.0, SVG Export Plug-In . SVG Version: 6.00 Build 0)  -->
<svg version="1.1" id="Layer_1" xmlns="http://www.w3.org/2000/svg" xmlns:xlink="http://www.w3.org/1999/xlink" x="0px" y="0px"
	 viewBox="0 0 1920 1080" style="enable-background:new 0 0 1920 1080;" xml:space="preserve">
<style type="text/css">
	.st0{fill:#FFFF00;}
	.st1{fill:#FF0000;}
	.st2{fill:#C6C6C6;}
	.st3{fill:#FDE7FF;}
	.st4{fill:#FFFFFF;}
	.st5{fill:#00784A;}
	.st6{fill:none;stroke:#333333;stroke-width:0.4224;stroke-miterlimit:10;}
	.st7{fill:#333333;}
</style>
<circle class="st0" cx="960.2" cy="540" r="376"/>
<path d="M1123.4,252.3c-0.2-0.7-0.8-1.1-1.4-1.2l0.3-0.1c-36.2-37.5-94.5-55.9-162.7-56.4C892.9,194,834,212.6,797,250.7l0.1,0.2
	c-0.5,0.1-0.9,0.4-1.1,1L627.8,795.7c-0.3,0.9,0.4,1.8,1.4,1.8l63.5-0.7c0.6,0,1.1-0.4,1.3-1l80.4-260.3h370.5l80.7,261.3l66.5,0.7
	L1123.4,252.3z"/>
<g>
	<path class="st1" d="M789.4,377.1c0.1,0,0.2,0.1,0.3,0.1C789.6,377.2,789.6,377.1,789.4,377.1L789.4,377.1z"/>
	<path class="st1" d="M869.3,293.7c0.3,0.5,0.6,0.9,0.9,1.4c0.1-0.1,0.2-0.1,0.3-0.2C870.1,294.5,869.7,294.1,869.3,293.7z"/>
	<path class="st1" d="M1134.8,398.2c-1.1-3.3-2.4-6.5-3.5-9.7c-0.4-1.2-0.8-2.6-0.8-3.9c-0.2-3.2,0-6.5-0.4-9.7
		c-0.2-1.6-1.4-3.2-2.2-4.7c-0.6-0.9-1.6-1.7-2.3-2.6c-2.3-2.7-4.4-5.5-6.6-8.2c-0.3-0.3-0.9-0.3-1.3-0.5c-3.6-1.2-7.8-4.5-7.4-9
		c0.1-1.5-0.3-3.1-0.5-4.7c-0.3,0.3-0.6,0.6-1,0.8c-1.6-0.9-3.2-1.8-4.9-2.7c-0.1,0.5-0.3,1.2-0.5,1.9c-3.1,0.3-3.7-2-4.1-4
		c-0.9-4-2-7.9-5.6-10.5c-0.5-0.4-1-1.7-0.8-1.9c1.8-2-0.3-2.7-1.2-3.2c-2.1-1-4.4-1.6-6.5-2.5c-0.9-0.4-2-1.1-2.3-1.9
		c-0.7-2-2-2.1-3.7-2.5c-3.4-0.9-7.4-1.3-7.5-6.3c0-0.4-0.9-0.8-1-1.3c-0.5-1.3-1.2-2.8-1.2-4.1c0.2-4.3,0.1-8.4-3.7-11.5
		c-0.9-0.7-1.3-2.3-1.6-3.5c-0.7-3.7-0.6-7.7-3.2-10.9c-1.8-2.1-3.2-4.6-4.8-7c-1.1,0.6-2,1.2-3.1,1.7c-1.5,0.6-3.1,0.6-3.6-1.2
		c-0.6-2.2-0.8-4.5-1.4-6.6c-0.8-2.9-1.6-5.9-2.7-8.7c-0.9-2.3-2.3-4.5-3.4-6.7c-0.1-0.2-0.1-0.6-0.1-0.9c0.3-3-1.2-5.3-3.2-7.8
		c-1,1.2-2.3,2-2.7,3.2c-0.7,2.3-0.9,4.7-1.4,7.1c-0.1,0.5-0.4,1-0.7,1.4c-0.9,1.1-1.9,2.2-2.9,3.4c1.4,1.2,2.3,1.9,3,2.4
		c-1,0.7-2.4,1.2-2.6,1.9c-0.6,2.5-1.4,5.1-1.2,7.6c0.7,5.8,0.8,11.3-0.7,17.1c-1.2,4.9-3.6,9.1-5.3,13.8c-0.2,0.5-0.7,1-1.2,1.2
		c-2.2,1-4.5,1.8-6.1,2.5c-1.5-1.1-2.5-1.9-3.6-2.7c-1.3-1.1-2.6-2.2-3.9-3.2c-1.3-1-2.7-1.9-4.1-2.7c-1.8-0.9-3.7-1.5-5.4-2.4
		c-1.8-1-3.4-2.5-5.3-3.4c-4.2-2.1-9-3.2-12-7.3c-0.5-0.7-1.4-1-2.1-1.5c-3.9-2.3-3.9-2.3-1.5-6.1c0.4-0.6,1-1.2,1.5-1.8
		c1.1-1.5,2-3,0.9-5c-0.4-0.6-0.2-2.2,0.3-2.5c1.4-1.1,3-1.8,4.3-2.5c1.3-2.1,2.7-4.2,4.1-6.5c-0.8-0.5-1.8-1-2.8-1.6
		c-0.5-0.3-1.1-0.4-1.6-0.6c-0.1,0.5-0.2,1.1-0.4,1.6c-0.3,0.7-0.8,1.4-1.2,2.1c-0.6-0.4-1.3-0.8-1.9-1.2c-0.7-0.5-1.5-0.9-2.3-1.4
		c0.2-0.6,0.4-1.2,0.9-2.5c-2.3,2.9-5.5,3.3-8.3,1.8c-0.6-0.3-1.4-0.7-1.9-0.6c-2.5,0.8-4.5-0.5-6.4-1.6c-0.3-0.2-0.7-0.4-1-0.5
		c-3.4-1.1-7.4-1.3-10.1-3.4c-2.2-1.7-4.2-0.8-6.2-1.1c1.2,0.9,2.6,1.5,4,1.6c2.2,0.2,4.5,4.2,3.3,6.3c-0.6-0.1-1.2-0.3-1.9-0.4
		c-0.1,0.6-0.2,1.3-0.2,1.6c-1.5-0.1-2.7-0.1-3.9-0.2c-1.8-0.1-3.6,0.3-5.2-0.2c-2.7-0.9-3.9,0.3-4.7,2.6c-0.7-0.4-1.3-0.7-1.9-1
		c0.1,0.8,0.2,1.3,0.3,1.9c-2.4-0.1-4.6,2.3-4.5,4.7c0,0.7-0.2,1.8-0.6,2c-3.7,1.5-3,6.2-7,8.2c2,0.6,2.9,0.9,3.9,1.2
		c0.2,0.9,0.3,1.7,0.5,2.7c-0.7,0-1.4,0.1-1.9,0.1c0.3,0.7,0.5,1.3,1,2.7c-1.6-1-2.5-1.6-3.5-2.2c-0.2,0.5-0.4,0.9-0.5,1.4
		c-3.2-3.2-6.7-3.2-8.5-0.1c0.1,0.7,0.3,1.4,0.5,2.3c-0.9,0.2-1.7,0.3-2.9,0.5c0.5-1.6,0.9-2.9,1.1-4.2c0.1-0.7,0.3-1.8-0.1-2.1
		c-3.3-2.8-5.6-7.1-10.2-7.4c-1.1,1.1-2.8,2.9-3,2.7c-2.4-1.6-3.6,0.9-3.9,1.7c-0.8,2-2.3,2.1-3.8,2.3c-6,0.4-7.2,2-5.4,6.5
		c-2,0.9-3.9,1.8-5.8,2.7c0.8,0.7,1.5,1.4,2.5,2.4c-0.5,0.7-1.3,1.6-2,2.5c0.5,0.4,1,0.7,1.4,1.1c-1.4,0.4-2.6,0-3.8,0
		c-1.3,0-2.9,0.1-3.8,0.8c-1.2,1-0.7,2.4,0.5,3.5c0.5,0.5,0.7,1.4,0.9,2.1c0.1,0.2-0.1,0.5-0.2,0.9c-0.7-0.4-1.3-0.7-2.1-1.1
		c-0.3,1.2-0.6,2.1-1,3.6c-1.6-2.6-3-4.9-4.4-7.2c-1.4,0.8-2.9,1.5-4.3,2.5c-3.3,2.3-4,4.4-2.2,7.9c1.1,2.1,0.4,3.2-1.2,4
		c-2.3,1.1-3.5,2.9-4.5,5.1c-1.9,4.3-5.3,7-9.8,8c-3.4,0.7-6.9,0.9-10.3,1.5c-1,0.2-1.9,0.6-2.9,1c-4.4,1.7-8.7,3.5-13.1,5.2
		c-0.2,0.1-0.6,0-0.9-0.1c-5.2-1.5-9.2,0.9-13,4.1c-1.4,1.2-2.8,2.6-4.5,3.2c-3.6,1.3-6.8,2.8-7.8,7c-0.1,0.5-1.3,1.1-1.8,1
		c-0.4-0.1-1-1.1-1.1-1.7c-0.1-1.2,0.2-2.4,0.3-3.7c-1.5,2.3-4.1,4.4-3,7.5c1,3,0.6,5.3-1.1,7.9c-1.8,2.6-2.5,5.5-0.6,8.5
		c1.8,2.9,3.5,6,5.2,9c1.3,2.3,1.1,4.3-0.2,5.8c-1.5-0.7-2.6-1.2-3.7-1.6c0.2,0.2,0.5,0.4,0.5,0.6c0.1,0.9,0.1,1.8,0.1,2.8
		c-0.7-0.5-1.6-0.9-2.2-1.5c-0.6-0.6-1-1.4-1.5-2.1c-0.3,0.2-0.6,0.4-0.9,0.6c0.7,1,1.4,2.1,2.2,3c2.6,3.1,5.2,6.2,5.7,10.6
		c0.2,1.6,1.2,3.1,1.9,4.7c1.6,3.4,4.7,6.7,4.8,10c0.2,6.5,2.4,11.9,5.7,17.1c1.8,2.8,2.1,6,1,9.3c-0.3,0.8-0.5,1.7-0.4,2.5
		c0.7,5-0.8,6.8-5.6,7c-0.8,4.1-0.5,4.5,3.1,5.7c1.3,0.4,2.5,1.5,3.7,2.3c1.1,0.7,2.2,1.8,3.4,2.1c3.1,0.7,6.3,0.6,9.4,1.4
		c3.9,1,7.1-0.4,10-2.4c3.7-2.5,8.7-2.5,11.7-6.4c0.4-0.5,1.4-0.6,2.2-0.7c3.5-0.3,6.9-0.8,10.4-0.9c5.2,0,10.3,0.9,15.6,0.9
		c3.6,0,6.6-1.4,8.3-4.7c0.8-1.6,2.6-2.9,4.2-3.9c1.4-0.9,3.2-1.3,4.8-1.9c4.5-1.9,8.7-3.9,14-3.8c5.1,0.1,10.2-1.9,15.3-3.1
		c3.6-0.8,7.1-2,10.7-2.5c3.2-0.5,6.7,0.4,9.8-0.5c3.6-1,6.4-0.2,9,1.7c2.1,1.5,3.9,2.7,6.6,1.7c0.8-0.3,2,0.5,3,0.8
		c1,0.3,2.1,1.1,3,0.9c3.7-1.1,5.2,2.6,8,3.5c0.2,0.1,0.4,1.2,0.2,1.5c-1.6,2.3-0.2,3.6,1.7,3.7c2.3,0.1,3,1.3,3.5,3.1
		c0.2,0.8,0.9,1.4,1.4,2.2c1.3,2.2,2.7,4.4,4.3,7.1c-1.6-0.2-2.1-0.2-2.6-0.3c-0.1,0.2-0.1,0.4-0.2,0.6c2,1,4.1,2.1,5.8,2.9
		c0.1-1.5-0.1-2.7,0.4-3.2c2.1-2.2,4.2-4.3,6.5-6.1c1.5-1.2,3.8-1.6,5-3c1.9-2.3,3.3-5.1,5-8c0.2,2,3.3,3.2,0.6,5.8
		c-0.8,0.8-0.1,2.9-0.9,3.8c-1.8,2-2.9,4-2.3,6.8c0.4,2.1-0.2,3.8-3,4c-0.8,0.1-1.6,1-2.4,1.6c0.1,0.2,0.3,0.4,0.4,0.7
		c1.3-0.3,2.6-1,3.9-0.9c2.8,0.3,3.5-1.3,3.9-3.5c0.4-1.7,1-3.3,1.5-5c0.3,0,0.7,0,1-0.1c1.1,2.1,2.8,4.2,3,6.4c0.2,2.1-1.2,4.4-2,7
		c2-0.7,4.4-1.2,6.5-2.3c1.9-1,2.8-0.8,3.3,1.4c0.2,1,0.9,1.9,1.4,2.7c1.6,2.7,3,5.5,2.3,8.7c-0.5,2.4,0,3.9,2,5.2
		c0.9,0.6,1.6,1.7,2.4,2.5c0.8,0.8,1.8,2,2.7,2c4-0.1,6.8,3.1,11.1,2.8c3.7-0.2,7.5,2,11.2,3.3c2,0.7,3.7,0.8,5.4-0.6
		c1.8-1.4,3.9-2.6,5.6-3.6c-0.1-0.3-0.3-0.8-0.5-1.2c1.7-0.4,3.4-0.8,5-1.3c-0.3,1.4-0.5,2.8-0.8,4.2c1.3-0.5,2.9-1.2,4.7-2
		c0.2,5.9,6.3,4.2,7.8,8.4c0.6-1.3,0.8-1.9,1.1-2.4c-0.9-0.2-1.7-0.3-2.5-0.4c0-0.3,0-0.5,0-0.8c1-0.2,2-0.4,3-0.7
		c1.9-0.7,4.1-1,5.5-2.3c4.6-4.3,10.1-5.5,16.1-5.5c2.1,0,4.3-1,6.4-1.7c0.6-0.2,1.5-1.2,1.3-1.6c-1-3.3,0.3-6.3,1.4-9.3
		c1-3,2.2-5.9,3.5-8.7c2-4.2,4.3-8.2,6.3-12.4c1.7-3.7,3-7.5,7-9.6c1.6-0.9,3-2.4,4-4c1-1.5,1-3.5,1.9-5c1.7-2.9,2.8-5.7,2.4-9.1
		c-0.1-0.8,0.2-1.7,0.5-2.6c1.5-4.4,3-8.7,4.4-13.1C1134.8,399.6,1135,398.8,1134.8,398.2z"/>
	<path class="st1" d="M1085.2,504.1c-2.3,0.7-4.7,0.9-6.9,1.8c-3.9,1.6-7.6,1.1-11.3-0.2c-2-0.7-4.1-1.2-6.2-1.7
		c-3-0.7-4.1,0.4-2.7,3c1.6,3.2,4,5.9,6,8.9c0.5,0.7,0.8,1.4,1.2,2.1c-0.2,0.1-0.4,0.3-0.6,0.4c-0.6-0.5-1.3-1-2.1-1.7
		c0.6,5.1,8.7,11.2,13.2,10.8c0.8-0.1,1.5-1.5,2.3-2.3c0.3-0.3,0.3-0.9,0.6-1.1c2.7-1.5,5.5-3,8.3-4.5c-1-1.3-0.6-3.1,1.4-5.5
		c0.2,0.7,0.4,1.2,0.6,1.7c0.2-3,0.3-5.8,0.4-8.7C1089.4,504.5,1087.7,503.4,1085.2,504.1z"/>
	<path class="st1" d="M939.2,253.6c2.3-0.3,3.8-3,3.5-4.6c-2.8,0-5.5,0-8.2,0C935.6,250.8,935.8,254,939.2,253.6z"/>
	<path class="st1" d="M987.8,460.7c0.1,0.3,0.1,0.6,0.2,0.9c3.9,1.4,7.8,0.4,12.3-0.9c-2.6-0.6-4.6-1.4-6.5-1.4
		C991.7,459.3,989.8,460.2,987.8,460.7z"/>
	<path class="st1" d="M989.4,274.4c-0.1-1.3-0.3-2.3-0.5-4.4c-1.2,1.2-2.1,2-3.4,3.3C987.4,273.9,988.5,274.2,989.4,274.4z"/>
	<path class="st1" d="M1089.1,497.6c-1.1-1-2.2-2-3.3-3c-0.3,0.3-0.6,0.7-0.9,1c1.1,1,2.2,2,3.2,3.1
		C1088.5,498.3,1088.8,497.9,1089.1,497.6z"/>
	<path class="st1" d="M1131.7,365.7c-0.6,2-1.3,4.2-2,6.3C1132.4,367.1,1132.4,367.1,1131.7,365.7z"/>
	<path class="st1" d="M789.4,377.1C789.4,377.1,789.5,377,789.4,377.1c0-0.1,0-0.2,0-0.2C789.4,376.9,789.4,377,789.4,377.1z"/>
	<path class="st1" d="M786.8,372.4c1.1,1.8,1.8,3.1,2.6,4.4C789.3,375.3,790.7,373.1,786.8,372.4z"/>
	<path class="st1" d="M1050.9,497c0.5,0,1,0.1,1.4,0.1c0.1-1,0.2-2.1,0.3-3.1c-0.5-0.1-1-0.1-1.5-0.2
		C1051,494.8,1051,495.9,1050.9,497z"/>
</g>
<g>
	<g>
		<g>
			<path class="st2" d="M1042.4,597.1l108.9-44.9l23.7,57c0,0,6.5,24-5.5,46.1c-12,22.1-35.7,27.7-35.7,27.7s-23.1,5.2-42.5-4.6
				c-19.3-9.8-26.2-26.6-26.2-26.6L1042.4,597.1z"/>
			<circle cx="1082.5" cy="618.5" r="6.1"/>
			<circle cx="1138" cy="595.7" r="6.1"/>
			<path d="M1139.5,652.8L1139.5,652.8c-0.1-7.9-3.6-17-9.2-22.4c-0.5-0.5-1.1-1-1.7-1.5c0.1,0,0.1-0.1,0.1-0.1s-3.1-3.2-12.3-7
				c0,0-3.2,10.9-3.1,12.3c0,0,0,0,0,0c-1.3,6.3,1.1,14.1,3.9,19.1c2.3,4.2,5.7,8.2,10,10.3c2.2,1.1,5.5,2.2,7.8,0.9
				C1138.2,662.8,1139.3,656.2,1139.5,652.8z"/>
		</g>
		<g>
			<path class="st2" d="M1214.6,559.5c0,0,0.6-10-0.6-18.6c-1-7.3-3.2-11.3-3.9-12.4c-5.1-9.5-17.4-5.1-32.1,0.5
				c-15.3,5.8-27.4,11.5-23.9,22.3l0,0l23.2,56.1c0,0,17.3-7.2,27.2-21.2C1214.5,572.3,1214.6,559.5,1214.6,559.5z"/>
			<path class="st3" d="M1166,556.3l39-16.2c0,0,4.4,13.2,1.6,24.2c-2.8,10.9-8.4,17.7-8.4,17.7s-7.8,9.6-16,13.4L1166,556.3z"/>
		</g>
		<g>
			<path class="st2" d="M1002.2,646.2c0,0-7.5-6.6-12.7-13.5c-4.4-5.9-5.7-10.3-6-11.5c-3.1-10.4,8.7-15.9,23.1-22.4
				c14.9-6.7,27.5-11.3,32.6-1.2l0,0l23.3,56.1c0,0-17.4,7.2-34.2,4.3C1011.4,655.1,1002.2,646.2,1002.2,646.2z"/>
			<path class="st3" d="M1034.3,609.5l-39,16.2c0,0,6.3,12.4,16,18.2s18.5,6.6,18.5,6.6s12.3,1.3,20.8-1.9L1034.3,609.5z"/>
		</g>
	</g>
</g>
<g>
	<path class="st4" d="M1131.3,680.4c0.1-1-0.7-2.8-0.3-6.2c0.5-3.4,0.8-4.1,0.8-4.1l1.4-3.9l1.3-0.2c0,0-1.7,3.6-2.1,6.8
		c-0.4,3.2-0.5,4.7-0.5,4.7s-0.2,4,0.8,7.6"/>
	<path class="st5" d="M1134.8,665.9l4.4-1.1c0,0-2.2,16.8-3.6,20c-1.5,3.3-1.7,3.4-1.7,3.4s-1.1,1.4-2.8-0.9
		c-1.6-2.3-2.5-5.2-2.5-5.2s-1.6-6.2-0.9-10.1c0.6-3.9,1.5-5.8,1.5-5.8l4.3-0.2l-1.7,4.7c0,0-1.1,4.6-0.4,8.2c0,0,0.2,3,1.4,6.3
		l0.3-0.2c0,0-1.1-4.9-0.8-6.7c0,0,0-5.9,1.4-9.9C1134.3,666.7,1134.8,665.9,1134.8,665.9z"/>
</g>
<path class="st6" d="M1176.5,812.4"/>
<g>
	<path class="st2" d="M1190.5,728.3c-1.6-9.2-4.1-17.5-7-24.1c-0.4-1.5-0.4-2.4-0.4-2.4l29.6-12.1l-12.6-30.7l-82.4,33.8l0.1,0.2
		l-0.5,0.2c-3.9,11.4-1.6,31.5,7,52.4c8.6,20.9,21.1,36.9,31.9,42.3c0,0,9.5-4.3,19.1-9.6c0,0,4.8-2,10.6-6.1
		c0.2-0.1,0.4-0.3,0.6-0.4c1.4-1.1,2.9-2.2,4.4-3.6c2.4-2.1,2.5-9.5,1.5-18.5C1192.4,743.2,1191.8,735.9,1190.5,728.3z"/>
	<path class="st7" d="M1210,656.9c-1.4,0.4-2.5,1.1-3.6,1.7l-3.3,1.3l0.3,0.7l1.2,3l0.3,0.7l3.3-1.3c1.2-0.3,2.5-0.7,3.8-1.2
		c4.6-1.8,8.5-5.4,8-5.9C1219.3,655.1,1214.8,655.3,1210,656.9z"/>
	<path class="st7" d="M1213.2,663.9c-1.4,0.4-2.5,1.1-3.6,1.7l-3.3,1.3l0.3,0.7l1.2,3l0.3,0.7l3.3-1.3c1.2-0.3,2.5-0.7,3.8-1.2
		c4.6-1.8,8.5-5.4,8-5.9C1222.5,662.1,1218,662.3,1213.2,663.9z"/>
	<path class="st7" d="M1215.8,670.8c-1.4,0.4-2.5,1.1-3.6,1.7l-3.3,1.3l0.3,0.7l1.2,3l0.3,0.7l3.3-1.3c1.2-0.3,2.5-0.7,3.8-1.2
		c4.6-1.8,8.5-5.4,8-5.9C1225.1,669.1,1220.6,669.3,1215.8,670.8z"/>
	<path class="st7" d="M1218.8,677.9c-1.4,0.4-2.5,1.1-3.6,1.7l-3.3,1.3l0.3,0.7l1.2,3l0.3,0.7l3.3-1.3c1.2-0.3,2.5-0.7,3.8-1.2
		c4.6-1.8,8.5-5.4,8-5.9C1228.1,676.2,1223.7,676.3,1218.8,677.9z"/>
</g>
<path class="st2" d="M1180.5,801.1c1,0,2.1-0.1,3.3-0.5c0.6-0.1,1.2-0.3,1.7-0.6c3.9-1.6,8.5-5.1,12.7-9.8c0.5-0.5,1.1-1.1,1.6-1.6
	c5.5-5.8,9.3-11.9,10.7-16.6c1.1-2.7,1.9-5.6,2.2-8.7c1.7-17-10.7-32.2-27.7-33.9s-42.7,29.7-44.5,32c-4,5.1,3.1,17.5,16,27.8
	c7.4,5.9,15,9.8,20.9,11.1C1178.2,800.9,1179.3,801.2,1180.5,801.1z"/>
</svg>
